<mxfile host="app.diagrams.net" agent="Mozilla/5.0 (Windows NT 10.0; Win64; x64) AppleWebKit/537.36 (KHTML, like Gecko) Chrome/132.0.0.0 YaBrowser/25.2.0.0 Safari/537.36" version="26.0.16" pages="2">
  <diagram name="Страница — 1" id="1gRCo7CSVKfPHHqEsFrh">
    <mxGraphModel dx="3476" dy="1431" grid="1" gridSize="10" guides="1" tooltips="1" connect="1" arrows="1" fold="1" page="1" pageScale="1" pageWidth="827" pageHeight="1169" math="0" shadow="0">
      <root>
        <mxCell id="0" />
        <mxCell id="1" parent="0" />
        <mxCell id="4g2cCyfrvSWflpvDvrXQ-2" value="Продавец" style="swimlane;horizontal=0;whiteSpace=wrap;html=1;" parent="1" vertex="1">
          <mxGeometry x="-290" y="210" width="2680" height="210" as="geometry" />
        </mxCell>
        <mxCell id="fPDiVnOKsctsiHyWlo5k-55" value="" style="rounded=1;whiteSpace=wrap;html=1;" parent="4g2cCyfrvSWflpvDvrXQ-2" vertex="1">
          <mxGeometry x="720" y="60" width="120" height="60" as="geometry" />
        </mxCell>
        <mxCell id="4rvhQ1KMZgeBkdW3N3Um-2" value="" style="rounded=1;whiteSpace=wrap;html=1;" parent="4g2cCyfrvSWflpvDvrXQ-2" vertex="1">
          <mxGeometry x="140" y="60" width="120" height="60" as="geometry" />
        </mxCell>
        <mxCell id="4rvhQ1KMZgeBkdW3N3Um-4" value="" style="rounded=1;whiteSpace=wrap;html=1;" parent="4g2cCyfrvSWflpvDvrXQ-2" vertex="1">
          <mxGeometry x="310" y="60" width="120" height="60" as="geometry" />
        </mxCell>
        <mxCell id="4rvhQ1KMZgeBkdW3N3Um-7" value="" style="endArrow=classic;html=1;rounded=0;entryX=0;entryY=0.5;entryDx=0;entryDy=0;" parent="4g2cCyfrvSWflpvDvrXQ-2" source="4rvhQ1KMZgeBkdW3N3Um-2" target="4rvhQ1KMZgeBkdW3N3Um-4" edge="1">
          <mxGeometry width="50" height="50" relative="1" as="geometry">
            <mxPoint x="140" y="210" as="sourcePoint" />
            <mxPoint x="190" y="160" as="targetPoint" />
          </mxGeometry>
        </mxCell>
        <mxCell id="4rvhQ1KMZgeBkdW3N3Um-8" value="" style="rounded=1;whiteSpace=wrap;html=1;" parent="4g2cCyfrvSWflpvDvrXQ-2" vertex="1">
          <mxGeometry x="470" y="60" width="120" height="60" as="geometry" />
        </mxCell>
        <mxCell id="4rvhQ1KMZgeBkdW3N3Um-36" value="&lt;br style=&quot;forced-color-adjust: none; color: rgb(0, 0, 0); font-family: Helvetica; font-size: 12px; font-style: normal; font-variant-ligatures: normal; font-variant-caps: normal; font-weight: 700; letter-spacing: normal; orphans: 2; text-align: center; text-indent: 0px; text-transform: none; widows: 2; word-spacing: 0px; -webkit-text-stroke-width: 0px; white-space: normal; background-color: rgb(251, 251, 251); text-decoration-thickness: initial; text-decoration-style: initial; text-decoration-color: initial;&quot;&gt;&lt;span style=&quot;forced-color-adjust: none; font-style: normal; font-variant-ligatures: normal; font-variant-caps: normal; font-weight: 700; letter-spacing: normal; orphans: 2; text-indent: 0px; text-transform: none; widows: 2; word-spacing: 0px; -webkit-text-stroke-width: 0px; white-space: normal; text-decoration-thickness: initial; text-decoration-style: initial; text-decoration-color: initial; color: rgba(255, 255, 255, 0.75); font-family: &amp;quot;YS Text&amp;quot;, -apple-system, BlinkMacSystemFont, Arial, Helvetica, sans-serif; font-size: 24px; text-align: start; background-color: rgb(34, 34, 36); float: none; display: inline !important;&quot;&gt;✍&lt;/span&gt;&lt;br style=&quot;forced-color-adjust: none; color: rgb(0, 0, 0); font-family: Helvetica; font-size: 12px; font-style: normal; font-variant-ligatures: normal; font-variant-caps: normal; font-weight: 700; letter-spacing: normal; orphans: 2; text-align: center; text-indent: 0px; text-transform: none; widows: 2; word-spacing: 0px; -webkit-text-stroke-width: 0px; white-space: normal; background-color: rgb(251, 251, 251); text-decoration-thickness: initial; text-decoration-style: initial; text-decoration-color: initial;&quot;&gt;" style="text;whiteSpace=wrap;html=1;" parent="4g2cCyfrvSWflpvDvrXQ-2" vertex="1">
          <mxGeometry x="140" y="40" width="70" height="70" as="geometry" />
        </mxCell>
        <mxCell id="4rvhQ1KMZgeBkdW3N3Um-37" value="&lt;br style=&quot;forced-color-adjust: none; color: rgb(0, 0, 0); font-family: Helvetica; font-size: 12px; font-style: normal; font-variant-ligatures: normal; font-variant-caps: normal; font-weight: 700; letter-spacing: normal; orphans: 2; text-align: center; text-indent: 0px; text-transform: none; widows: 2; word-spacing: 0px; -webkit-text-stroke-width: 0px; white-space: normal; background-color: rgb(251, 251, 251); text-decoration-thickness: initial; text-decoration-style: initial; text-decoration-color: initial;&quot;&gt;&lt;span style=&quot;forced-color-adjust: none; font-style: normal; font-variant-ligatures: normal; font-variant-caps: normal; font-weight: 700; letter-spacing: normal; orphans: 2; text-indent: 0px; text-transform: none; widows: 2; word-spacing: 0px; -webkit-text-stroke-width: 0px; white-space: normal; text-decoration-thickness: initial; text-decoration-style: initial; text-decoration-color: initial; color: rgba(255, 255, 255, 0.75); font-family: &amp;quot;YS Text&amp;quot;, -apple-system, BlinkMacSystemFont, Arial, Helvetica, sans-serif; font-size: 24px; text-align: start; background-color: rgb(34, 34, 36); float: none; display: inline !important;&quot;&gt;✍&lt;/span&gt;&lt;br style=&quot;forced-color-adjust: none; color: rgb(0, 0, 0); font-family: Helvetica; font-size: 12px; font-style: normal; font-variant-ligatures: normal; font-variant-caps: normal; font-weight: 700; letter-spacing: normal; orphans: 2; text-align: center; text-indent: 0px; text-transform: none; widows: 2; word-spacing: 0px; -webkit-text-stroke-width: 0px; white-space: normal; background-color: rgb(251, 251, 251); text-decoration-thickness: initial; text-decoration-style: initial; text-decoration-color: initial;&quot;&gt;" style="text;whiteSpace=wrap;html=1;" parent="4g2cCyfrvSWflpvDvrXQ-2" vertex="1">
          <mxGeometry x="310" y="40" width="70" height="70" as="geometry" />
        </mxCell>
        <mxCell id="4rvhQ1KMZgeBkdW3N3Um-38" value="&lt;br style=&quot;forced-color-adjust: none; color: rgb(0, 0, 0); font-family: Helvetica; font-size: 12px; font-style: normal; font-variant-ligatures: normal; font-variant-caps: normal; font-weight: 700; letter-spacing: normal; orphans: 2; text-align: center; text-indent: 0px; text-transform: none; widows: 2; word-spacing: 0px; -webkit-text-stroke-width: 0px; white-space: normal; background-color: rgb(251, 251, 251); text-decoration-thickness: initial; text-decoration-style: initial; text-decoration-color: initial;&quot;&gt;&lt;span style=&quot;forced-color-adjust: none; font-style: normal; font-variant-ligatures: normal; font-variant-caps: normal; font-weight: 700; letter-spacing: normal; orphans: 2; text-indent: 0px; text-transform: none; widows: 2; word-spacing: 0px; -webkit-text-stroke-width: 0px; white-space: normal; text-decoration-thickness: initial; text-decoration-style: initial; text-decoration-color: initial; color: rgba(255, 255, 255, 0.75); font-family: &amp;quot;YS Text&amp;quot;, -apple-system, BlinkMacSystemFont, Arial, Helvetica, sans-serif; font-size: 24px; text-align: start; background-color: rgb(34, 34, 36); float: none; display: inline !important;&quot;&gt;✍&lt;/span&gt;&lt;br style=&quot;forced-color-adjust: none; color: rgb(0, 0, 0); font-family: Helvetica; font-size: 12px; font-style: normal; font-variant-ligatures: normal; font-variant-caps: normal; font-weight: 700; letter-spacing: normal; orphans: 2; text-align: center; text-indent: 0px; text-transform: none; widows: 2; word-spacing: 0px; -webkit-text-stroke-width: 0px; white-space: normal; background-color: rgb(251, 251, 251); text-decoration-thickness: initial; text-decoration-style: initial; text-decoration-color: initial;&quot;&gt;" style="text;whiteSpace=wrap;html=1;" parent="4g2cCyfrvSWflpvDvrXQ-2" vertex="1">
          <mxGeometry x="470" y="40" width="40" height="50" as="geometry" />
        </mxCell>
        <mxCell id="fPDiVnOKsctsiHyWlo5k-40" value="уточнить запрос" style="text;html=1;align=center;verticalAlign=middle;whiteSpace=wrap;rounded=0;" parent="4g2cCyfrvSWflpvDvrXQ-2" vertex="1">
          <mxGeometry x="180" y="75" width="60" height="30" as="geometry" />
        </mxCell>
        <mxCell id="fPDiVnOKsctsiHyWlo5k-41" value="показать каталоги" style="text;html=1;align=center;verticalAlign=middle;whiteSpace=wrap;rounded=0;" parent="4g2cCyfrvSWflpvDvrXQ-2" vertex="1">
          <mxGeometry x="350" y="75" width="60" height="30" as="geometry" />
        </mxCell>
        <mxCell id="fPDiVnOKsctsiHyWlo5k-42" value="ответить на вопросы и подобрать вариант" style="text;html=1;align=center;verticalAlign=middle;whiteSpace=wrap;rounded=0;" parent="4g2cCyfrvSWflpvDvrXQ-2" vertex="1">
          <mxGeometry x="500" y="50" width="80" height="80" as="geometry" />
        </mxCell>
        <mxCell id="fPDiVnOKsctsiHyWlo5k-31" value="" style="shape=actor;whiteSpace=wrap;html=1;" parent="4g2cCyfrvSWflpvDvrXQ-2" vertex="1">
          <mxGeometry x="720" y="60" width="20" height="30" as="geometry" />
        </mxCell>
        <mxCell id="fPDiVnOKsctsiHyWlo5k-59" value="рассчитать цену" style="text;html=1;align=center;verticalAlign=middle;whiteSpace=wrap;rounded=0;" parent="4g2cCyfrvSWflpvDvrXQ-2" vertex="1">
          <mxGeometry x="750" y="75" width="60" height="30" as="geometry" />
        </mxCell>
        <mxCell id="fPDiVnOKsctsiHyWlo5k-60" value="прайс Excel" style="shape=datastore;whiteSpace=wrap;html=1;" parent="4g2cCyfrvSWflpvDvrXQ-2" vertex="1">
          <mxGeometry x="720" y="150" width="60" height="60" as="geometry" />
        </mxCell>
        <mxCell id="fPDiVnOKsctsiHyWlo5k-61" value="" style="endArrow=none;dashed=1;html=1;dashPattern=1 3;strokeWidth=2;rounded=0;" parent="4g2cCyfrvSWflpvDvrXQ-2" source="fPDiVnOKsctsiHyWlo5k-60" edge="1">
          <mxGeometry width="50" height="50" relative="1" as="geometry">
            <mxPoint x="704" y="170" as="sourcePoint" />
            <mxPoint x="754" y="120" as="targetPoint" />
          </mxGeometry>
        </mxCell>
        <mxCell id="y7sOQWrAvTqIUeYnkiv4-2" value="" style="rounded=1;whiteSpace=wrap;html=1;" parent="4g2cCyfrvSWflpvDvrXQ-2" vertex="1">
          <mxGeometry x="1040" y="120" width="120" height="60" as="geometry" />
        </mxCell>
        <mxCell id="y7sOQWrAvTqIUeYnkiv4-1" value="" style="rounded=1;whiteSpace=wrap;html=1;" parent="4g2cCyfrvSWflpvDvrXQ-2" vertex="1">
          <mxGeometry x="1040" y="10" width="120" height="60" as="geometry" />
        </mxCell>
        <mxCell id="fPDiVnOKsctsiHyWlo5k-29" value="" style="rhombus;whiteSpace=wrap;html=1;" parent="4g2cCyfrvSWflpvDvrXQ-2" vertex="1">
          <mxGeometry x="880" y="50" width="80" height="80" as="geometry" />
        </mxCell>
        <mxCell id="fPDiVnOKsctsiHyWlo5k-62" style="edgeStyle=orthogonalEdgeStyle;rounded=0;orthogonalLoop=1;jettySize=auto;html=1;entryX=0;entryY=0.5;entryDx=0;entryDy=0;" parent="4g2cCyfrvSWflpvDvrXQ-2" source="fPDiVnOKsctsiHyWlo5k-55" target="fPDiVnOKsctsiHyWlo5k-29" edge="1">
          <mxGeometry relative="1" as="geometry" />
        </mxCell>
        <mxCell id="y7sOQWrAvTqIUeYnkiv4-5" value="" style="verticalLabelPosition=bottom;verticalAlign=top;html=1;shape=mxgraph.basic.x" parent="4g2cCyfrvSWflpvDvrXQ-2" vertex="1">
          <mxGeometry x="900" y="70" width="40" height="40" as="geometry" />
        </mxCell>
        <mxCell id="fPDiVnOKsctsiHyWlo5k-46" value="Цена устроила покупателя?" style="text;html=1;align=center;verticalAlign=middle;whiteSpace=wrap;rounded=0;" parent="4g2cCyfrvSWflpvDvrXQ-2" vertex="1">
          <mxGeometry x="890" y="10" width="60" height="30" as="geometry" />
        </mxCell>
        <mxCell id="fPDiVnOKsctsiHyWlo5k-71" value="" style="endArrow=classic;html=1;rounded=0;" parent="4g2cCyfrvSWflpvDvrXQ-2" edge="1">
          <mxGeometry width="50" height="50" relative="1" as="geometry">
            <mxPoint x="960" y="90" as="sourcePoint" />
            <mxPoint x="1040" y="40" as="targetPoint" />
            <Array as="points">
              <mxPoint x="990" y="90" />
              <mxPoint x="990" y="40" />
              <mxPoint x="1000" y="40" />
            </Array>
          </mxGeometry>
        </mxCell>
        <mxCell id="y7sOQWrAvTqIUeYnkiv4-9" value="да" style="text;html=1;align=center;verticalAlign=middle;whiteSpace=wrap;rounded=0;" parent="4g2cCyfrvSWflpvDvrXQ-2" vertex="1">
          <mxGeometry x="980" y="120" width="60" height="30" as="geometry" />
        </mxCell>
        <mxCell id="y7sOQWrAvTqIUeYnkiv4-10" value="нет" style="text;html=1;align=center;verticalAlign=middle;whiteSpace=wrap;rounded=0;" parent="4g2cCyfrvSWflpvDvrXQ-2" vertex="1">
          <mxGeometry x="980" y="40" width="60" height="30" as="geometry" />
        </mxCell>
        <mxCell id="y7sOQWrAvTqIUeYnkiv4-11" value="предложить варианты дешевле" style="text;html=1;align=center;verticalAlign=middle;whiteSpace=wrap;rounded=0;" parent="4g2cCyfrvSWflpvDvrXQ-2" vertex="1">
          <mxGeometry x="1080" y="20" width="60" height="30" as="geometry" />
        </mxCell>
        <mxCell id="y7sOQWrAvTqIUeYnkiv4-12" value="принять оплату" style="text;html=1;align=center;verticalAlign=middle;whiteSpace=wrap;rounded=0;" parent="4g2cCyfrvSWflpvDvrXQ-2" vertex="1">
          <mxGeometry x="1080" y="130" width="60" height="30" as="geometry" />
        </mxCell>
        <mxCell id="y7sOQWrAvTqIUeYnkiv4-14" value="" style="endArrow=classic;html=1;rounded=0;entryX=0.5;entryY=1;entryDx=0;entryDy=0;" parent="4g2cCyfrvSWflpvDvrXQ-2" target="y7sOQWrAvTqIUeYnkiv4-13" edge="1">
          <mxGeometry width="50" height="50" relative="1" as="geometry">
            <mxPoint x="1160" y="40" as="sourcePoint" />
            <mxPoint x="1210" y="-10" as="targetPoint" />
            <Array as="points">
              <mxPoint x="1200" y="40" />
            </Array>
          </mxGeometry>
        </mxCell>
        <mxCell id="y7sOQWrAvTqIUeYnkiv4-25" value="да" style="text;html=1;align=center;verticalAlign=middle;whiteSpace=wrap;rounded=0;" parent="4g2cCyfrvSWflpvDvrXQ-2" vertex="1">
          <mxGeometry x="1210" y="45" width="60" height="30" as="geometry" />
        </mxCell>
        <mxCell id="y7sOQWrAvTqIUeYnkiv4-34" value="" style="edgeStyle=orthogonalEdgeStyle;rounded=0;orthogonalLoop=1;jettySize=auto;html=1;" parent="4g2cCyfrvSWflpvDvrXQ-2" source="y7sOQWrAvTqIUeYnkiv4-31" target="y7sOQWrAvTqIUeYnkiv4-33" edge="1">
          <mxGeometry relative="1" as="geometry" />
        </mxCell>
        <mxCell id="y7sOQWrAvTqIUeYnkiv4-31" value="" style="rounded=1;whiteSpace=wrap;html=1;" parent="4g2cCyfrvSWflpvDvrXQ-2" vertex="1">
          <mxGeometry x="1210" y="119.99666666666673" width="120" height="60" as="geometry" />
        </mxCell>
        <mxCell id="y7sOQWrAvTqIUeYnkiv4-30" style="edgeStyle=orthogonalEdgeStyle;rounded=0;orthogonalLoop=1;jettySize=auto;html=1;exitX=1;exitY=0.5;exitDx=0;exitDy=0;" parent="4g2cCyfrvSWflpvDvrXQ-2" source="y7sOQWrAvTqIUeYnkiv4-2" target="y7sOQWrAvTqIUeYnkiv4-31" edge="1">
          <mxGeometry relative="1" as="geometry">
            <mxPoint x="1280" y="150.16666666666674" as="targetPoint" />
          </mxGeometry>
        </mxCell>
        <mxCell id="y7sOQWrAvTqIUeYnkiv4-32" value="уточнить адрес и номер получателя" style="text;html=1;align=center;verticalAlign=middle;whiteSpace=wrap;rounded=0;" parent="4g2cCyfrvSWflpvDvrXQ-2" vertex="1">
          <mxGeometry x="1250" y="135" width="60" height="30" as="geometry" />
        </mxCell>
        <mxCell id="y7sOQWrAvTqIUeYnkiv4-33" value="" style="whiteSpace=wrap;html=1;rounded=1;" parent="4g2cCyfrvSWflpvDvrXQ-2" vertex="1">
          <mxGeometry x="1390" y="119.99666666666673" width="120" height="60" as="geometry" />
        </mxCell>
        <mxCell id="y7sOQWrAvTqIUeYnkiv4-35" value="записать и повторить вслух&amp;nbsp; данные получателя" style="text;html=1;align=center;verticalAlign=middle;whiteSpace=wrap;rounded=0;" parent="4g2cCyfrvSWflpvDvrXQ-2" vertex="1">
          <mxGeometry x="1420" y="135" width="90" height="30" as="geometry" />
        </mxCell>
        <mxCell id="y7sOQWrAvTqIUeYnkiv4-38" value="" style="shape=actor;whiteSpace=wrap;html=1;" parent="4g2cCyfrvSWflpvDvrXQ-2" vertex="1">
          <mxGeometry x="1390" y="120" width="20" height="30" as="geometry" />
        </mxCell>
        <mxCell id="y7sOQWrAvTqIUeYnkiv4-39" value="&lt;br style=&quot;forced-color-adjust: none; color: rgb(0, 0, 0); font-family: Helvetica; font-size: 12px; font-style: normal; font-variant-ligatures: normal; font-variant-caps: normal; font-weight: 700; letter-spacing: normal; orphans: 2; text-align: center; text-indent: 0px; text-transform: none; widows: 2; word-spacing: 0px; -webkit-text-stroke-width: 0px; white-space: normal; background-color: rgb(251, 251, 251); text-decoration-thickness: initial; text-decoration-style: initial; text-decoration-color: initial;&quot;&gt;&lt;span style=&quot;forced-color-adjust: none; font-style: normal; font-variant-ligatures: normal; font-variant-caps: normal; font-weight: 700; letter-spacing: normal; orphans: 2; text-indent: 0px; text-transform: none; widows: 2; word-spacing: 0px; -webkit-text-stroke-width: 0px; white-space: normal; text-decoration-thickness: initial; text-decoration-style: initial; text-decoration-color: initial; color: rgba(255, 255, 255, 0.75); font-family: &amp;quot;YS Text&amp;quot;, -apple-system, BlinkMacSystemFont, Arial, Helvetica, sans-serif; font-size: 24px; text-align: start; background-color: rgb(34, 34, 36); float: none; display: inline !important;&quot;&gt;✍&lt;/span&gt;&lt;br style=&quot;forced-color-adjust: none; color: rgb(0, 0, 0); font-family: Helvetica; font-size: 12px; font-style: normal; font-variant-ligatures: normal; font-variant-caps: normal; font-weight: 700; letter-spacing: normal; orphans: 2; text-align: center; text-indent: 0px; text-transform: none; widows: 2; word-spacing: 0px; -webkit-text-stroke-width: 0px; white-space: normal; background-color: rgb(251, 251, 251); text-decoration-thickness: initial; text-decoration-style: initial; text-decoration-color: initial;&quot;&gt;" style="text;whiteSpace=wrap;html=1;" parent="4g2cCyfrvSWflpvDvrXQ-2" vertex="1">
          <mxGeometry x="1210" y="100" width="40" height="50" as="geometry" />
        </mxCell>
        <mxCell id="y7sOQWrAvTqIUeYnkiv4-40" value="" style="shape=actor;whiteSpace=wrap;html=1;" parent="4g2cCyfrvSWflpvDvrXQ-2" vertex="1">
          <mxGeometry x="1040" y="120" width="20" height="30" as="geometry" />
        </mxCell>
        <mxCell id="y7sOQWrAvTqIUeYnkiv4-41" value="" style="shape=actor;whiteSpace=wrap;html=1;" parent="4g2cCyfrvSWflpvDvrXQ-2" vertex="1">
          <mxGeometry x="1040" y="15" width="20" height="30" as="geometry" />
        </mxCell>
        <mxCell id="y7sOQWrAvTqIUeYnkiv4-46" value="" style="rounded=1;whiteSpace=wrap;html=1;" parent="4g2cCyfrvSWflpvDvrXQ-2" vertex="1">
          <mxGeometry x="1540" y="120" width="120" height="60" as="geometry" />
        </mxCell>
        <mxCell id="y7sOQWrAvTqIUeYnkiv4-45" value="" style="endArrow=classic;html=1;rounded=0;exitX=1;exitY=0.5;exitDx=0;exitDy=0;" parent="4g2cCyfrvSWflpvDvrXQ-2" source="y7sOQWrAvTqIUeYnkiv4-35" target="y7sOQWrAvTqIUeYnkiv4-46" edge="1">
          <mxGeometry width="50" height="50" relative="1" as="geometry">
            <mxPoint x="1410" y="120" as="sourcePoint" />
            <mxPoint x="1570" y="150" as="targetPoint" />
            <Array as="points" />
          </mxGeometry>
        </mxCell>
        <mxCell id="y7sOQWrAvTqIUeYnkiv4-47" value="написать эл письмо производству с заказом" style="text;html=1;align=center;verticalAlign=middle;whiteSpace=wrap;rounded=0;" parent="4g2cCyfrvSWflpvDvrXQ-2" vertex="1">
          <mxGeometry x="1580" y="135" width="60" height="30" as="geometry" />
        </mxCell>
        <mxCell id="y7sOQWrAvTqIUeYnkiv4-48" value="" style="shape=actor;whiteSpace=wrap;html=1;" parent="4g2cCyfrvSWflpvDvrXQ-2" vertex="1">
          <mxGeometry x="1540" y="120" width="20" height="30" as="geometry" />
        </mxCell>
        <mxCell id="y7sOQWrAvTqIUeYnkiv4-72" value="" style="rounded=1;whiteSpace=wrap;html=1;" parent="4g2cCyfrvSWflpvDvrXQ-2" vertex="1">
          <mxGeometry x="1910" y="120" width="120" height="60" as="geometry" />
        </mxCell>
        <mxCell id="y7sOQWrAvTqIUeYnkiv4-73" value="отправить недостающие данные" style="text;html=1;align=center;verticalAlign=middle;whiteSpace=wrap;rounded=0;" parent="4g2cCyfrvSWflpvDvrXQ-2" vertex="1">
          <mxGeometry x="1944" y="135" width="60" height="30" as="geometry" />
        </mxCell>
        <mxCell id="y7sOQWrAvTqIUeYnkiv4-82" value="" style="shape=actor;whiteSpace=wrap;html=1;" parent="4g2cCyfrvSWflpvDvrXQ-2" vertex="1">
          <mxGeometry x="1910" y="120" width="20" height="30" as="geometry" />
        </mxCell>
        <mxCell id="4g2cCyfrvSWflpvDvrXQ-1" value="Покупатель" style="swimlane;horizontal=0;whiteSpace=wrap;html=1;" parent="1" vertex="1">
          <mxGeometry x="-290" y="20" width="2679" height="190" as="geometry" />
        </mxCell>
        <mxCell id="4g2cCyfrvSWflpvDvrXQ-9" value="" style="ellipse;whiteSpace=wrap;html=1;aspect=fixed;fillColor=#dae8fc;strokeColor=#6c8ebf;" parent="4g2cCyfrvSWflpvDvrXQ-1" vertex="1">
          <mxGeometry x="50" y="60" width="80" height="80" as="geometry" />
        </mxCell>
        <mxCell id="4g2cCyfrvSWflpvDvrXQ-10" value="Потребность в покупке мебели" style="text;html=1;align=center;verticalAlign=middle;whiteSpace=wrap;rounded=0;" parent="4g2cCyfrvSWflpvDvrXQ-1" vertex="1">
          <mxGeometry x="60" y="150" width="60" height="30" as="geometry" />
        </mxCell>
        <mxCell id="4g2cCyfrvSWflpvDvrXQ-11" value="" style="endArrow=classic;html=1;rounded=0;entryX=0;entryY=0.75;entryDx=0;entryDy=0;exitX=1;exitY=0.5;exitDx=0;exitDy=0;" parent="4g2cCyfrvSWflpvDvrXQ-1" source="4g2cCyfrvSWflpvDvrXQ-9" target="4rvhQ1KMZgeBkdW3N3Um-35" edge="1">
          <mxGeometry width="50" height="50" relative="1" as="geometry">
            <mxPoint x="125" y="109" as="sourcePoint" />
            <mxPoint x="230" y="109" as="targetPoint" />
          </mxGeometry>
        </mxCell>
        <mxCell id="4rvhQ1KMZgeBkdW3N3Um-1" value="" style="rounded=1;whiteSpace=wrap;html=1;" parent="4g2cCyfrvSWflpvDvrXQ-1" vertex="1">
          <mxGeometry x="180" y="70" width="120" height="60" as="geometry" />
        </mxCell>
        <mxCell id="4rvhQ1KMZgeBkdW3N3Um-6" value="" style="rounded=1;whiteSpace=wrap;html=1;" parent="4g2cCyfrvSWflpvDvrXQ-1" vertex="1">
          <mxGeometry x="350" y="70" width="120" height="60" as="geometry" />
        </mxCell>
        <mxCell id="fPDiVnOKsctsiHyWlo5k-23" style="edgeStyle=orthogonalEdgeStyle;rounded=0;orthogonalLoop=1;jettySize=auto;html=1;" parent="4g2cCyfrvSWflpvDvrXQ-1" source="4rvhQ1KMZgeBkdW3N3Um-9" edge="1">
          <mxGeometry relative="1" as="geometry">
            <mxPoint x="720" y="40" as="targetPoint" />
            <Array as="points">
              <mxPoint x="660" y="100" />
              <mxPoint x="660" y="40" />
              <mxPoint x="661" y="40" />
            </Array>
          </mxGeometry>
        </mxCell>
        <mxCell id="4rvhQ1KMZgeBkdW3N3Um-9" value="" style="rhombus;whiteSpace=wrap;html=1;" parent="4g2cCyfrvSWflpvDvrXQ-1" vertex="1">
          <mxGeometry x="570" y="60" width="80" height="80" as="geometry" />
        </mxCell>
        <mxCell id="4rvhQ1KMZgeBkdW3N3Um-34" value="&lt;br style=&quot;forced-color-adjust: none; color: rgb(0, 0, 0); font-family: Helvetica; font-size: 12px; font-style: normal; font-variant-ligatures: normal; font-variant-caps: normal; font-weight: 700; letter-spacing: normal; orphans: 2; text-align: center; text-indent: 0px; text-transform: none; widows: 2; word-spacing: 0px; -webkit-text-stroke-width: 0px; white-space: normal; background-color: rgb(251, 251, 251); text-decoration-thickness: initial; text-decoration-style: initial; text-decoration-color: initial;&quot;&gt;&lt;span style=&quot;forced-color-adjust: none; font-style: normal; font-variant-ligatures: normal; font-variant-caps: normal; font-weight: 700; letter-spacing: normal; orphans: 2; text-indent: 0px; text-transform: none; widows: 2; word-spacing: 0px; -webkit-text-stroke-width: 0px; white-space: normal; text-decoration-thickness: initial; text-decoration-style: initial; text-decoration-color: initial; color: rgba(255, 255, 255, 0.75); font-family: &amp;quot;YS Text&amp;quot;, -apple-system, BlinkMacSystemFont, Arial, Helvetica, sans-serif; font-size: 24px; text-align: start; background-color: rgb(34, 34, 36); float: none; display: inline !important;&quot;&gt;✍&lt;/span&gt;&lt;br style=&quot;forced-color-adjust: none; color: rgb(0, 0, 0); font-family: Helvetica; font-size: 12px; font-style: normal; font-variant-ligatures: normal; font-variant-caps: normal; font-weight: 700; letter-spacing: normal; orphans: 2; text-align: center; text-indent: 0px; text-transform: none; widows: 2; word-spacing: 0px; -webkit-text-stroke-width: 0px; white-space: normal; background-color: rgb(251, 251, 251); text-decoration-thickness: initial; text-decoration-style: initial; text-decoration-color: initial;&quot;&gt;" style="text;whiteSpace=wrap;html=1;" parent="4g2cCyfrvSWflpvDvrXQ-1" vertex="1">
          <mxGeometry x="350" y="51" width="70" height="70" as="geometry" />
        </mxCell>
        <mxCell id="4rvhQ1KMZgeBkdW3N3Um-35" value="&lt;br style=&quot;forced-color-adjust: none; color: rgb(0, 0, 0); font-family: Helvetica; font-size: 12px; font-style: normal; font-variant-ligatures: normal; font-variant-caps: normal; font-weight: 700; letter-spacing: normal; orphans: 2; text-align: center; text-indent: 0px; text-transform: none; widows: 2; word-spacing: 0px; -webkit-text-stroke-width: 0px; white-space: normal; background-color: rgb(251, 251, 251); text-decoration-thickness: initial; text-decoration-style: initial; text-decoration-color: initial;&quot;&gt;&lt;span style=&quot;forced-color-adjust: none; font-style: normal; font-variant-ligatures: normal; font-variant-caps: normal; font-weight: 700; letter-spacing: normal; orphans: 2; text-indent: 0px; text-transform: none; widows: 2; word-spacing: 0px; -webkit-text-stroke-width: 0px; white-space: normal; text-decoration-thickness: initial; text-decoration-style: initial; text-decoration-color: initial; color: rgba(255, 255, 255, 0.75); font-family: &amp;quot;YS Text&amp;quot;, -apple-system, BlinkMacSystemFont, Arial, Helvetica, sans-serif; font-size: 24px; text-align: start; background-color: rgb(34, 34, 36); float: none; display: inline !important;&quot;&gt;✍&lt;/span&gt;&lt;br style=&quot;forced-color-adjust: none; color: rgb(0, 0, 0); font-family: Helvetica; font-size: 12px; font-style: normal; font-variant-ligatures: normal; font-variant-caps: normal; font-weight: 700; letter-spacing: normal; orphans: 2; text-align: center; text-indent: 0px; text-transform: none; widows: 2; word-spacing: 0px; -webkit-text-stroke-width: 0px; white-space: normal; background-color: rgb(251, 251, 251); text-decoration-thickness: initial; text-decoration-style: initial; text-decoration-color: initial;&quot;&gt;" style="text;whiteSpace=wrap;html=1;" parent="4g2cCyfrvSWflpvDvrXQ-1" vertex="1">
          <mxGeometry x="180" y="49" width="70" height="70" as="geometry" />
        </mxCell>
        <mxCell id="4rvhQ1KMZgeBkdW3N3Um-39" value="" style="verticalLabelPosition=bottom;verticalAlign=top;html=1;shape=mxgraph.basic.x" parent="4g2cCyfrvSWflpvDvrXQ-1" vertex="1">
          <mxGeometry x="590" y="80" width="40" height="40" as="geometry" />
        </mxCell>
        <mxCell id="fPDiVnOKsctsiHyWlo5k-26" value="" style="rounded=1;whiteSpace=wrap;html=1;" parent="4g2cCyfrvSWflpvDvrXQ-1" vertex="1">
          <mxGeometry x="720" y="130" width="120" height="60" as="geometry" />
        </mxCell>
        <mxCell id="fPDiVnOKsctsiHyWlo5k-28" value="" style="ellipse;whiteSpace=wrap;html=1;aspect=fixed;fillColor=#f8cecc;strokeColor=#b85450;" parent="4g2cCyfrvSWflpvDvrXQ-1" vertex="1">
          <mxGeometry x="720" y="10" width="80" height="80" as="geometry" />
        </mxCell>
        <mxCell id="fPDiVnOKsctsiHyWlo5k-67" style="edgeStyle=orthogonalEdgeStyle;rounded=0;orthogonalLoop=1;jettySize=auto;html=1;" parent="4g2cCyfrvSWflpvDvrXQ-1" target="y7sOQWrAvTqIUeYnkiv4-2" edge="1">
          <mxGeometry relative="1" as="geometry">
            <mxPoint x="990" y="350" as="targetPoint" />
            <mxPoint x="990" y="280" as="sourcePoint" />
            <Array as="points">
              <mxPoint x="990" y="350" />
            </Array>
          </mxGeometry>
        </mxCell>
        <mxCell id="fPDiVnOKsctsiHyWlo5k-38" value="зайти в магазин и позвать консультанта&amp;nbsp;&amp;nbsp;" style="text;html=1;align=center;verticalAlign=middle;whiteSpace=wrap;rounded=0;" parent="4g2cCyfrvSWflpvDvrXQ-1" vertex="1">
          <mxGeometry x="220" y="85" width="60" height="30" as="geometry" />
        </mxCell>
        <mxCell id="fPDiVnOKsctsiHyWlo5k-39" value="задать вопросы" style="text;html=1;align=center;verticalAlign=middle;whiteSpace=wrap;rounded=0;" parent="4g2cCyfrvSWflpvDvrXQ-1" vertex="1">
          <mxGeometry x="400" y="80" width="60" height="30" as="geometry" />
        </mxCell>
        <mxCell id="fPDiVnOKsctsiHyWlo5k-43" value="Подобрали вариант?" style="text;html=1;align=center;verticalAlign=middle;whiteSpace=wrap;rounded=0;" parent="4g2cCyfrvSWflpvDvrXQ-1" vertex="1">
          <mxGeometry x="580" y="10" width="60" height="30" as="geometry" />
        </mxCell>
        <mxCell id="fPDiVnOKsctsiHyWlo5k-45" value="уйти" style="text;html=1;align=center;verticalAlign=middle;whiteSpace=wrap;rounded=0;" parent="4g2cCyfrvSWflpvDvrXQ-1" vertex="1">
          <mxGeometry x="730" y="35" width="60" height="30" as="geometry" />
        </mxCell>
        <mxCell id="fPDiVnOKsctsiHyWlo5k-51" value="нет" style="text;html=1;align=center;verticalAlign=middle;whiteSpace=wrap;rounded=0;" parent="4g2cCyfrvSWflpvDvrXQ-1" vertex="1">
          <mxGeometry x="660" y="49" width="60" height="30" as="geometry" />
        </mxCell>
        <mxCell id="fPDiVnOKsctsiHyWlo5k-52" value="да" style="text;html=1;align=center;verticalAlign=middle;whiteSpace=wrap;rounded=0;" parent="4g2cCyfrvSWflpvDvrXQ-1" vertex="1">
          <mxGeometry x="660" y="130" width="60" height="30" as="geometry" />
        </mxCell>
        <mxCell id="fPDiVnOKsctsiHyWlo5k-22" style="edgeStyle=orthogonalEdgeStyle;rounded=0;orthogonalLoop=1;jettySize=auto;html=1;exitX=1;exitY=0.5;exitDx=0;exitDy=0;entryX=1;entryY=1;entryDx=0;entryDy=0;" parent="4g2cCyfrvSWflpvDvrXQ-1" target="fPDiVnOKsctsiHyWlo5k-52" edge="1">
          <mxGeometry relative="1" as="geometry">
            <mxPoint x="710" y="161" as="targetPoint" />
            <mxPoint x="650" y="100.5" as="sourcePoint" />
            <Array as="points">
              <mxPoint x="661" y="101" />
              <mxPoint x="661" y="160" />
            </Array>
          </mxGeometry>
        </mxCell>
        <mxCell id="fPDiVnOKsctsiHyWlo5k-53" value="&lt;br style=&quot;forced-color-adjust: none; color: rgb(0, 0, 0); font-family: Helvetica; font-size: 12px; font-style: normal; font-variant-ligatures: normal; font-variant-caps: normal; font-weight: 700; letter-spacing: normal; orphans: 2; text-align: center; text-indent: 0px; text-transform: none; widows: 2; word-spacing: 0px; -webkit-text-stroke-width: 0px; white-space: normal; background-color: rgb(251, 251, 251); text-decoration-thickness: initial; text-decoration-style: initial; text-decoration-color: initial;&quot;&gt;&lt;span style=&quot;forced-color-adjust: none; font-style: normal; font-variant-ligatures: normal; font-variant-caps: normal; font-weight: 700; letter-spacing: normal; orphans: 2; text-indent: 0px; text-transform: none; widows: 2; word-spacing: 0px; -webkit-text-stroke-width: 0px; white-space: normal; text-decoration-thickness: initial; text-decoration-style: initial; text-decoration-color: initial; color: rgba(255, 255, 255, 0.75); font-family: &amp;quot;YS Text&amp;quot;, -apple-system, BlinkMacSystemFont, Arial, Helvetica, sans-serif; font-size: 24px; text-align: start; background-color: rgb(34, 34, 36); float: none; display: inline !important;&quot;&gt;✍&lt;/span&gt;&lt;br style=&quot;forced-color-adjust: none; color: rgb(0, 0, 0); font-family: Helvetica; font-size: 12px; font-style: normal; font-variant-ligatures: normal; font-variant-caps: normal; font-weight: 700; letter-spacing: normal; orphans: 2; text-align: center; text-indent: 0px; text-transform: none; widows: 2; word-spacing: 0px; -webkit-text-stroke-width: 0px; white-space: normal; background-color: rgb(251, 251, 251); text-decoration-thickness: initial; text-decoration-style: initial; text-decoration-color: initial;&quot;&gt;" style="text;whiteSpace=wrap;html=1;" parent="4g2cCyfrvSWflpvDvrXQ-1" vertex="1">
          <mxGeometry x="720" y="110" width="40" height="50" as="geometry" />
        </mxCell>
        <mxCell id="fPDiVnOKsctsiHyWlo5k-54" value="уточнить цену" style="text;html=1;align=center;verticalAlign=middle;whiteSpace=wrap;rounded=0;" parent="4g2cCyfrvSWflpvDvrXQ-1" vertex="1">
          <mxGeometry x="760" y="150" width="60" height="30" as="geometry" />
        </mxCell>
        <mxCell id="fPDiVnOKsctsiHyWlo5k-58" value="" style="endArrow=classic;html=1;rounded=0;" parent="4g2cCyfrvSWflpvDvrXQ-1" source="fPDiVnOKsctsiHyWlo5k-26" edge="1">
          <mxGeometry width="50" height="50" relative="1" as="geometry">
            <mxPoint x="1070" y="230" as="sourcePoint" />
            <mxPoint x="780" y="260.71067811865476" as="targetPoint" />
          </mxGeometry>
        </mxCell>
        <mxCell id="y7sOQWrAvTqIUeYnkiv4-13" value="" style="rhombus;whiteSpace=wrap;html=1;" parent="4g2cCyfrvSWflpvDvrXQ-1" vertex="1">
          <mxGeometry x="1160" y="95" width="80" height="80" as="geometry" />
        </mxCell>
        <mxCell id="y7sOQWrAvTqIUeYnkiv4-16" value="" style="verticalLabelPosition=bottom;verticalAlign=top;html=1;shape=mxgraph.basic.x" parent="4g2cCyfrvSWflpvDvrXQ-1" vertex="1">
          <mxGeometry x="1180" y="115" width="40" height="40" as="geometry" />
        </mxCell>
        <mxCell id="y7sOQWrAvTqIUeYnkiv4-17" value="Подобрали вариант?" style="text;html=1;align=center;verticalAlign=middle;whiteSpace=wrap;rounded=0;" parent="4g2cCyfrvSWflpvDvrXQ-1" vertex="1">
          <mxGeometry x="1170" y="60" width="60" height="30" as="geometry" />
        </mxCell>
        <mxCell id="y7sOQWrAvTqIUeYnkiv4-19" value="" style="ellipse;whiteSpace=wrap;html=1;aspect=fixed;fillColor=#f8cecc;strokeColor=#b85450;" parent="4g2cCyfrvSWflpvDvrXQ-1" vertex="1">
          <mxGeometry x="1310" y="40" width="80" height="80" as="geometry" />
        </mxCell>
        <mxCell id="y7sOQWrAvTqIUeYnkiv4-20" style="edgeStyle=orthogonalEdgeStyle;rounded=0;orthogonalLoop=1;jettySize=auto;html=1;exitX=1;exitY=0.5;exitDx=0;exitDy=0;entryX=0;entryY=0.625;entryDx=0;entryDy=0;entryPerimeter=0;" parent="4g2cCyfrvSWflpvDvrXQ-1" source="y7sOQWrAvTqIUeYnkiv4-13" target="y7sOQWrAvTqIUeYnkiv4-19" edge="1">
          <mxGeometry relative="1" as="geometry">
            <mxPoint x="1330" y="79" as="targetPoint" />
            <mxPoint x="1260" y="139" as="sourcePoint" />
            <Array as="points">
              <mxPoint x="1240" y="139" />
              <mxPoint x="1271" y="139" />
              <mxPoint x="1271" y="90" />
            </Array>
          </mxGeometry>
        </mxCell>
        <mxCell id="y7sOQWrAvTqIUeYnkiv4-21" value="нет" style="text;html=1;align=center;verticalAlign=middle;whiteSpace=wrap;rounded=0;" parent="4g2cCyfrvSWflpvDvrXQ-1" vertex="1">
          <mxGeometry x="1260" y="60" width="60" height="30" as="geometry" />
        </mxCell>
        <mxCell id="y7sOQWrAvTqIUeYnkiv4-22" style="edgeStyle=orthogonalEdgeStyle;rounded=0;orthogonalLoop=1;jettySize=auto;html=1;entryX=0.421;entryY=0.044;entryDx=0;entryDy=0;entryPerimeter=0;" parent="4g2cCyfrvSWflpvDvrXQ-1" target="y7sOQWrAvTqIUeYnkiv4-2" edge="1">
          <mxGeometry relative="1" as="geometry">
            <mxPoint x="1291.3200000000002" y="260.1399999999999" as="targetPoint" />
            <mxPoint x="1270" y="140" as="sourcePoint" />
            <Array as="points">
              <mxPoint x="1270" y="280" />
              <mxPoint x="1091" y="280" />
            </Array>
          </mxGeometry>
        </mxCell>
        <mxCell id="y7sOQWrAvTqIUeYnkiv4-24" value="уйти" style="text;html=1;align=center;verticalAlign=middle;whiteSpace=wrap;rounded=0;" parent="4g2cCyfrvSWflpvDvrXQ-1" vertex="1">
          <mxGeometry x="1320" y="69" width="60" height="30" as="geometry" />
        </mxCell>
        <mxCell id="y7sOQWrAvTqIUeYnkiv4-103" value="Заказ получен" style="ellipse;whiteSpace=wrap;html=1;aspect=fixed;fillColor=#f8cecc;strokeColor=#b85450;" parent="4g2cCyfrvSWflpvDvrXQ-1" vertex="1">
          <mxGeometry x="2550" y="60" width="80" height="80" as="geometry" />
        </mxCell>
        <mxCell id="nsYG7cW8gA6W0VQyh2gD-1" value="" style="ellipse;whiteSpace=wrap;html=1;" vertex="1" parent="4g2cCyfrvSWflpvDvrXQ-1">
          <mxGeometry x="1630" y="60" width="120" height="80" as="geometry" />
        </mxCell>
        <mxCell id="4g2cCyfrvSWflpvDvrXQ-3" value="Horizontal Container" style="swimlane;horizontal=0;whiteSpace=wrap;html=1;" parent="1" vertex="1">
          <mxGeometry x="-290" y="420" width="2680" height="200" as="geometry" />
        </mxCell>
        <mxCell id="y7sOQWrAvTqIUeYnkiv4-49" value="" style="rounded=1;whiteSpace=wrap;html=1;" parent="4g2cCyfrvSWflpvDvrXQ-3" vertex="1">
          <mxGeometry x="1620" y="50" width="120" height="60" as="geometry" />
        </mxCell>
        <mxCell id="y7sOQWrAvTqIUeYnkiv4-51" value="получить письмо и проверить данные" style="text;html=1;align=center;verticalAlign=middle;whiteSpace=wrap;rounded=0;" parent="4g2cCyfrvSWflpvDvrXQ-3" vertex="1">
          <mxGeometry x="1660" y="65" width="60" height="30" as="geometry" />
        </mxCell>
        <mxCell id="y7sOQWrAvTqIUeYnkiv4-52" value="" style="endArrow=classic;html=1;rounded=0;" parent="4g2cCyfrvSWflpvDvrXQ-3" target="y7sOQWrAvTqIUeYnkiv4-53" edge="1">
          <mxGeometry width="50" height="50" relative="1" as="geometry">
            <mxPoint x="1740" y="80" as="sourcePoint" />
            <mxPoint x="1790" y="30" as="targetPoint" />
          </mxGeometry>
        </mxCell>
        <mxCell id="y7sOQWrAvTqIUeYnkiv4-56" style="edgeStyle=orthogonalEdgeStyle;rounded=0;orthogonalLoop=1;jettySize=auto;html=1;entryX=0;entryY=0.5;entryDx=0;entryDy=0;exitX=0.875;exitY=0.5;exitDx=0;exitDy=0;exitPerimeter=0;" parent="4g2cCyfrvSWflpvDvrXQ-3" source="y7sOQWrAvTqIUeYnkiv4-53" target="y7sOQWrAvTqIUeYnkiv4-60" edge="1">
          <mxGeometry relative="1" as="geometry">
            <mxPoint x="1920" y="140" as="targetPoint" />
            <Array as="points">
              <mxPoint x="1891" y="80" />
              <mxPoint x="1891" y="140" />
            </Array>
          </mxGeometry>
        </mxCell>
        <mxCell id="y7sOQWrAvTqIUeYnkiv4-53" value="" style="rhombus;whiteSpace=wrap;html=1;" parent="4g2cCyfrvSWflpvDvrXQ-3" vertex="1">
          <mxGeometry x="1780" y="40" width="80" height="80" as="geometry" />
        </mxCell>
        <mxCell id="y7sOQWrAvTqIUeYnkiv4-54" value="" style="verticalLabelPosition=bottom;verticalAlign=top;html=1;shape=mxgraph.basic.x" parent="4g2cCyfrvSWflpvDvrXQ-3" vertex="1">
          <mxGeometry x="1800" y="60" width="40" height="40" as="geometry" />
        </mxCell>
        <mxCell id="y7sOQWrAvTqIUeYnkiv4-55" value="данных достаточно?" style="text;html=1;align=center;verticalAlign=middle;whiteSpace=wrap;rounded=0;" parent="4g2cCyfrvSWflpvDvrXQ-3" vertex="1">
          <mxGeometry x="1790" y="135" width="60" height="30" as="geometry" />
        </mxCell>
        <mxCell id="y7sOQWrAvTqIUeYnkiv4-58" style="edgeStyle=orthogonalEdgeStyle;rounded=0;orthogonalLoop=1;jettySize=auto;html=1;entryX=0.011;entryY=0.392;entryDx=0;entryDy=0;entryPerimeter=0;" parent="4g2cCyfrvSWflpvDvrXQ-3" target="y7sOQWrAvTqIUeYnkiv4-59" edge="1">
          <mxGeometry relative="1" as="geometry">
            <mxPoint x="1900" y="34" as="targetPoint" />
            <mxPoint x="1860" y="79" as="sourcePoint" />
            <Array as="points">
              <mxPoint x="1891" y="79" />
              <mxPoint x="1891" y="34" />
              <mxPoint x="1910" y="34" />
            </Array>
          </mxGeometry>
        </mxCell>
        <mxCell id="y7sOQWrAvTqIUeYnkiv4-60" value="" style="rounded=1;whiteSpace=wrap;html=1;" parent="4g2cCyfrvSWflpvDvrXQ-3" vertex="1">
          <mxGeometry x="1920" y="110" width="120" height="60" as="geometry" />
        </mxCell>
        <mxCell id="y7sOQWrAvTqIUeYnkiv4-59" value="" style="rounded=1;whiteSpace=wrap;html=1;" parent="4g2cCyfrvSWflpvDvrXQ-3" vertex="1">
          <mxGeometry x="1920" y="10" width="120" height="60" as="geometry" />
        </mxCell>
        <mxCell id="y7sOQWrAvTqIUeYnkiv4-63" value="запросить данные" style="text;html=1;align=center;verticalAlign=middle;whiteSpace=wrap;rounded=0;" parent="4g2cCyfrvSWflpvDvrXQ-3" vertex="1">
          <mxGeometry x="1960" y="30" width="60" height="30" as="geometry" />
        </mxCell>
        <mxCell id="y7sOQWrAvTqIUeYnkiv4-64" value="начать изготовление" style="text;html=1;align=center;verticalAlign=middle;whiteSpace=wrap;rounded=0;" parent="4g2cCyfrvSWflpvDvrXQ-3" vertex="1">
          <mxGeometry x="1970" y="125" width="60" height="30" as="geometry" />
        </mxCell>
        <mxCell id="y7sOQWrAvTqIUeYnkiv4-66" value="да" style="text;html=1;align=center;verticalAlign=middle;whiteSpace=wrap;rounded=0;" parent="4g2cCyfrvSWflpvDvrXQ-3" vertex="1">
          <mxGeometry x="1870" y="105" width="60" height="30" as="geometry" />
        </mxCell>
        <mxCell id="y7sOQWrAvTqIUeYnkiv4-67" value="нет" style="text;html=1;align=center;verticalAlign=middle;whiteSpace=wrap;rounded=0;" parent="4g2cCyfrvSWflpvDvrXQ-3" vertex="1">
          <mxGeometry x="1870" y="30" width="60" height="30" as="geometry" />
        </mxCell>
        <mxCell id="y7sOQWrAvTqIUeYnkiv4-70" value="" style="shape=actor;whiteSpace=wrap;html=1;" parent="4g2cCyfrvSWflpvDvrXQ-3" vertex="1">
          <mxGeometry x="1924" y="10" width="20" height="30" as="geometry" />
        </mxCell>
        <mxCell id="y7sOQWrAvTqIUeYnkiv4-71" value="" style="shape=actor;whiteSpace=wrap;html=1;" parent="4g2cCyfrvSWflpvDvrXQ-3" vertex="1">
          <mxGeometry x="1924" y="110" width="20" height="30" as="geometry" />
        </mxCell>
        <mxCell id="y7sOQWrAvTqIUeYnkiv4-78" value="" style="rounded=1;whiteSpace=wrap;html=1;" parent="4g2cCyfrvSWflpvDvrXQ-3" vertex="1">
          <mxGeometry x="2080" y="90" width="120" height="90" as="geometry" />
        </mxCell>
        <mxCell id="y7sOQWrAvTqIUeYnkiv4-79" value="по готовности заказа пересылать переписку с продавцом службе доставки" style="text;html=1;align=center;verticalAlign=middle;whiteSpace=wrap;rounded=0;" parent="4g2cCyfrvSWflpvDvrXQ-3" vertex="1">
          <mxGeometry x="2100" y="120" width="100" height="30" as="geometry" />
        </mxCell>
        <mxCell id="y7sOQWrAvTqIUeYnkiv4-81" value="" style="shape=actor;whiteSpace=wrap;html=1;" parent="4g2cCyfrvSWflpvDvrXQ-3" vertex="1">
          <mxGeometry x="2080" y="95" width="20" height="30" as="geometry" />
        </mxCell>
        <mxCell id="y7sOQWrAvTqIUeYnkiv4-85" style="edgeStyle=orthogonalEdgeStyle;rounded=0;orthogonalLoop=1;jettySize=auto;html=1;exitX=1;exitY=0.667;exitDx=0;exitDy=0;exitPerimeter=0;" parent="4g2cCyfrvSWflpvDvrXQ-3" source="y7sOQWrAvTqIUeYnkiv4-60" edge="1">
          <mxGeometry relative="1" as="geometry">
            <mxPoint x="2050" y="150" as="sourcePoint" />
            <mxPoint x="2082" y="150" as="targetPoint" />
          </mxGeometry>
        </mxCell>
        <mxCell id="4g2cCyfrvSWflpvDvrXQ-7" value="Horizontal Container" style="swimlane;horizontal=0;whiteSpace=wrap;html=1;" parent="1" vertex="1">
          <mxGeometry x="-290" y="620" width="2680" height="200" as="geometry" />
        </mxCell>
        <mxCell id="y7sOQWrAvTqIUeYnkiv4-93" style="edgeStyle=orthogonalEdgeStyle;rounded=0;orthogonalLoop=1;jettySize=auto;html=1;exitX=1;exitY=0.5;exitDx=0;exitDy=0;entryX=0;entryY=0.5;entryDx=0;entryDy=0;" parent="4g2cCyfrvSWflpvDvrXQ-7" source="y7sOQWrAvTqIUeYnkiv4-86" target="y7sOQWrAvTqIUeYnkiv4-89" edge="1">
          <mxGeometry relative="1" as="geometry" />
        </mxCell>
        <mxCell id="y7sOQWrAvTqIUeYnkiv4-86" value="" style="rounded=1;whiteSpace=wrap;html=1;" parent="4g2cCyfrvSWflpvDvrXQ-7" vertex="1">
          <mxGeometry x="2090" y="60" width="120" height="60" as="geometry" />
        </mxCell>
        <mxCell id="y7sOQWrAvTqIUeYnkiv4-88" value="получить письмо" style="text;html=1;align=center;verticalAlign=middle;whiteSpace=wrap;rounded=0;" parent="4g2cCyfrvSWflpvDvrXQ-7" vertex="1">
          <mxGeometry x="2120" y="70" width="60" height="30" as="geometry" />
        </mxCell>
        <mxCell id="y7sOQWrAvTqIUeYnkiv4-99" style="edgeStyle=orthogonalEdgeStyle;rounded=0;orthogonalLoop=1;jettySize=auto;html=1;exitX=1;exitY=0.5;exitDx=0;exitDy=0;entryX=0;entryY=0.5;entryDx=0;entryDy=0;" parent="4g2cCyfrvSWflpvDvrXQ-7" source="y7sOQWrAvTqIUeYnkiv4-89" target="y7sOQWrAvTqIUeYnkiv4-97" edge="1">
          <mxGeometry relative="1" as="geometry" />
        </mxCell>
        <mxCell id="y7sOQWrAvTqIUeYnkiv4-89" value="" style="rounded=1;whiteSpace=wrap;html=1;" parent="4g2cCyfrvSWflpvDvrXQ-7" vertex="1">
          <mxGeometry x="2238" y="60" width="120" height="60" as="geometry" />
        </mxCell>
        <mxCell id="y7sOQWrAvTqIUeYnkiv4-90" value="прайс Excel" style="shape=datastore;whiteSpace=wrap;html=1;" parent="4g2cCyfrvSWflpvDvrXQ-7" vertex="1">
          <mxGeometry x="2210" y="140" width="60" height="60" as="geometry" />
        </mxCell>
        <mxCell id="y7sOQWrAvTqIUeYnkiv4-92" value="" style="endArrow=none;dashed=1;html=1;dashPattern=1 3;strokeWidth=2;rounded=0;entryX=0.5;entryY=0;entryDx=0;entryDy=0;exitX=0.549;exitY=1.003;exitDx=0;exitDy=0;exitPerimeter=0;" parent="4g2cCyfrvSWflpvDvrXQ-7" source="y7sOQWrAvTqIUeYnkiv4-89" target="y7sOQWrAvTqIUeYnkiv4-90" edge="1">
          <mxGeometry width="50" height="50" relative="1" as="geometry">
            <mxPoint x="1550" y="-100" as="sourcePoint" />
            <mxPoint x="770" y="-280" as="targetPoint" />
          </mxGeometry>
        </mxCell>
        <mxCell id="y7sOQWrAvTqIUeYnkiv4-94" value="найти в базе данные покупателя" style="text;html=1;align=center;verticalAlign=middle;whiteSpace=wrap;rounded=0;" parent="4g2cCyfrvSWflpvDvrXQ-7" vertex="1">
          <mxGeometry x="2280" y="75" width="60" height="30" as="geometry" />
        </mxCell>
        <mxCell id="y7sOQWrAvTqIUeYnkiv4-95" value="" style="shape=actor;whiteSpace=wrap;html=1;" parent="4g2cCyfrvSWflpvDvrXQ-7" vertex="1">
          <mxGeometry x="2090" y="60" width="20" height="30" as="geometry" />
        </mxCell>
        <mxCell id="y7sOQWrAvTqIUeYnkiv4-96" value="" style="shape=actor;whiteSpace=wrap;html=1;" parent="4g2cCyfrvSWflpvDvrXQ-7" vertex="1">
          <mxGeometry x="2238" y="60" width="20" height="30" as="geometry" />
        </mxCell>
        <mxCell id="y7sOQWrAvTqIUeYnkiv4-104" style="edgeStyle=orthogonalEdgeStyle;rounded=0;orthogonalLoop=1;jettySize=auto;html=1;exitX=1;exitY=0.5;exitDx=0;exitDy=0;entryX=0;entryY=0.5;entryDx=0;entryDy=0;" parent="4g2cCyfrvSWflpvDvrXQ-7" source="y7sOQWrAvTqIUeYnkiv4-97" target="y7sOQWrAvTqIUeYnkiv4-100" edge="1">
          <mxGeometry relative="1" as="geometry" />
        </mxCell>
        <mxCell id="y7sOQWrAvTqIUeYnkiv4-97" value="согласовать с покупателем адрес&amp;nbsp; дату доставки" style="rounded=1;whiteSpace=wrap;html=1;" parent="4g2cCyfrvSWflpvDvrXQ-7" vertex="1">
          <mxGeometry x="2390" y="60" width="120" height="60" as="geometry" />
        </mxCell>
        <mxCell id="y7sOQWrAvTqIUeYnkiv4-100" value="" style="rounded=1;whiteSpace=wrap;html=1;" parent="4g2cCyfrvSWflpvDvrXQ-7" vertex="1">
          <mxGeometry x="2540" y="60" width="120" height="60" as="geometry" />
        </mxCell>
        <mxCell id="y7sOQWrAvTqIUeYnkiv4-101" value="осуществить доставку" style="text;html=1;align=center;verticalAlign=middle;whiteSpace=wrap;rounded=0;" parent="4g2cCyfrvSWflpvDvrXQ-7" vertex="1">
          <mxGeometry x="2570" y="75" width="60" height="30" as="geometry" />
        </mxCell>
        <mxCell id="4rvhQ1KMZgeBkdW3N3Um-5" value="" style="endArrow=classic;html=1;rounded=0;exitX=0.833;exitY=0.033;exitDx=0;exitDy=0;exitPerimeter=0;" parent="1" source="4rvhQ1KMZgeBkdW3N3Um-4" target="4rvhQ1KMZgeBkdW3N3Um-6" edge="1">
          <mxGeometry width="50" height="50" relative="1" as="geometry">
            <mxPoint x="110" y="260" as="sourcePoint" />
            <mxPoint x="-100" y="370" as="targetPoint" />
          </mxGeometry>
        </mxCell>
        <mxCell id="4rvhQ1KMZgeBkdW3N3Um-24" value="" style="shape=actor;whiteSpace=wrap;html=1;" parent="1" vertex="1">
          <mxGeometry x="-500" y="930" width="40" height="60" as="geometry" />
        </mxCell>
        <mxCell id="fPDiVnOKsctsiHyWlo5k-2" value="" style="endArrow=classic;html=1;rounded=0;entryX=0.5;entryY=1;entryDx=0;entryDy=0;exitX=1;exitY=0.5;exitDx=0;exitDy=0;" parent="1" source="4rvhQ1KMZgeBkdW3N3Um-8" target="4rvhQ1KMZgeBkdW3N3Um-9" edge="1">
          <mxGeometry width="50" height="50" relative="1" as="geometry">
            <mxPoint x="310" y="300" as="sourcePoint" />
            <mxPoint x="-100" y="370" as="targetPoint" />
            <Array as="points">
              <mxPoint x="320" y="300" />
            </Array>
          </mxGeometry>
        </mxCell>
        <mxCell id="4rvhQ1KMZgeBkdW3N3Um-3" value="" style="endArrow=classic;html=1;rounded=0;entryX=0.65;entryY=0.017;entryDx=0;entryDy=0;entryPerimeter=0;exitX=0.308;exitY=0.983;exitDx=0;exitDy=0;exitPerimeter=0;" parent="1" source="4rvhQ1KMZgeBkdW3N3Um-1" target="4rvhQ1KMZgeBkdW3N3Um-2" edge="1">
          <mxGeometry width="50" height="50" relative="1" as="geometry">
            <mxPoint x="-0.040000000000020464" y="140" as="sourcePoint" />
            <mxPoint x="-79.00000000000006" y="268.02" as="targetPoint" />
            <Array as="points" />
          </mxGeometry>
        </mxCell>
        <mxCell id="fPDiVnOKsctsiHyWlo5k-12" value="" style="endArrow=classic;html=1;rounded=0;exitX=1;exitY=0.5;exitDx=0;exitDy=0;entryX=0.5;entryY=0;entryDx=0;entryDy=0;" parent="1" source="4rvhQ1KMZgeBkdW3N3Um-6" target="4rvhQ1KMZgeBkdW3N3Um-8" edge="1">
          <mxGeometry width="50" height="50" relative="1" as="geometry">
            <mxPoint x="210" y="111" as="sourcePoint" />
            <mxPoint x="240" y="260" as="targetPoint" />
            <Array as="points">
              <mxPoint x="240" y="120" />
            </Array>
          </mxGeometry>
        </mxCell>
        <mxCell id="y7sOQWrAvTqIUeYnkiv4-50" value="" style="endArrow=classic;html=1;rounded=0;entryX=0.129;entryY=-0.039;entryDx=0;entryDy=0;entryPerimeter=0;exitX=0.796;exitY=1.003;exitDx=0;exitDy=0;exitPerimeter=0;" parent="1" source="y7sOQWrAvTqIUeYnkiv4-46" target="y7sOQWrAvTqIUeYnkiv4-49" edge="1">
          <mxGeometry width="50" height="50" relative="1" as="geometry">
            <mxPoint x="1340" y="393" as="sourcePoint" />
            <mxPoint x="1170" y="420" as="targetPoint" />
          </mxGeometry>
        </mxCell>
        <mxCell id="y7sOQWrAvTqIUeYnkiv4-75" style="edgeStyle=orthogonalEdgeStyle;rounded=0;orthogonalLoop=1;jettySize=auto;html=1;entryX=0.588;entryY=0.947;entryDx=0;entryDy=0;entryPerimeter=0;" parent="1" source="y7sOQWrAvTqIUeYnkiv4-59" target="y7sOQWrAvTqIUeYnkiv4-72" edge="1">
          <mxGeometry relative="1" as="geometry" />
        </mxCell>
        <mxCell id="y7sOQWrAvTqIUeYnkiv4-77" style="edgeStyle=orthogonalEdgeStyle;rounded=0;orthogonalLoop=1;jettySize=auto;html=1;" parent="1" source="y7sOQWrAvTqIUeYnkiv4-72" target="y7sOQWrAvTqIUeYnkiv4-53" edge="1">
          <mxGeometry relative="1" as="geometry" />
        </mxCell>
        <mxCell id="y7sOQWrAvTqIUeYnkiv4-87" style="edgeStyle=orthogonalEdgeStyle;rounded=0;orthogonalLoop=1;jettySize=auto;html=1;" parent="1" source="y7sOQWrAvTqIUeYnkiv4-78" edge="1">
          <mxGeometry relative="1" as="geometry">
            <mxPoint x="1850" y="680" as="targetPoint" />
          </mxGeometry>
        </mxCell>
        <mxCell id="y7sOQWrAvTqIUeYnkiv4-105" style="edgeStyle=orthogonalEdgeStyle;rounded=0;orthogonalLoop=1;jettySize=auto;html=1;entryX=0.5;entryY=1;entryDx=0;entryDy=0;" parent="1" source="y7sOQWrAvTqIUeYnkiv4-100" target="y7sOQWrAvTqIUeYnkiv4-103" edge="1">
          <mxGeometry relative="1" as="geometry">
            <Array as="points">
              <mxPoint x="2320" y="440" />
              <mxPoint x="2300" y="440" />
            </Array>
          </mxGeometry>
        </mxCell>
      </root>
    </mxGraphModel>
  </diagram>
  <diagram id="2BDR31ceLdqo4HCrqKAD" name="Страница — 2">
    <mxGraphModel grid="1" page="1" gridSize="10" guides="1" tooltips="1" connect="1" arrows="1" fold="1" pageScale="1" pageWidth="827" pageHeight="1169" math="0" shadow="0">
      <root>
        <mxCell id="0" />
        <mxCell id="1" parent="0" />
      </root>
    </mxGraphModel>
  </diagram>
</mxfile>
